# xmcd
#
# Track frame offsets: 
#        150
#        18330
#        41676
#        58275
#        75936
#        95705
#        112882
#        127969
#        139514
#        160624
#        174461
#        193818
#        215131
#        232352
#        247396
#
# Disc length: 3618 seconds
#
# Revision: 2
# Processed by: cddbd v1.5.2PL0 Copyright (c) Steve Scherf et al.
# Submitted via: ExactAudioCopyFreeDBPlugin 1.0
#
DISCID=d60e200f
DTITLE=Tamia - Between Friends
DYEAR=2006
DGENRE=R&B
TTITLE0=The Way I Love You
TTITLE1=Happy
TTITLE2=Almost
TTITLE3=Too Grown
TTITLE4=Me
TTITLE5=Can't Get Enough
TTITLE6=Day Dreaming
TTITLE7=Sittin On The Job
TTITLE8=Last First Kiss
TTITLE9=Why Can't It Be
TTITLE10=When A Woman
TTITLE11=Become Us
TTITLE12=Have To Go Through It
TTITLE13=Please Protect My Heart
TTITLE14=Love And I
EXTD=YEAR: 2006
EXTT0=
EXTT1=
EXTT2=
EXTT3=
EXTT4=
EXTT5=
EXTT6=
EXTT7=
EXTT8=
EXTT9=
EXTT10=
EXTT11=
EXTT12=
EXTT13=
EXTT14=
PLAYORDER=
